# xmcd
#
# Track frame offsets:
#	150
#	14255
#	27198
#	41886
#	56371
#	72638
#	88362
#	101576
#	105597
#	120331
#	133781
#	150524
#	164426
#	177416
#	191848
#
# Disc length: 2734 seconds
# Revision: 0
# Processed by: cddbd v1.5.2PL0 Copyright (c) Steve Scherf et al.
# Submitted via: dBpowerAMP V12.0
#
DISCID=ce0aac0f
DTITLE=Furykane - FaKe
DYEAR=2011
DGENRE=Fusion
TTITLE0=Bliss
TTITLE1=Kick Ass
TTITLE2=Altering Faces
TTITLE3=Kick'n'play
TTITLE4=Absolute Disgrace
TTITLE5=FaKe
TTITLE6=STFU
TTITLE7=Interlude
TTITLE8=Boogie
TTITLE9=Staind
TTITLE10=Soft
TTITLE11=Holy Mary
TTITLE12=AOSD
TTITLE13=Over
TTITLE14=Boogie (Bill remix)
EXTD=
EXTT0=
EXTT1=
EXTT2=
EXTT3=
EXTT4=
EXTT5=
EXTT6=
EXTT7=
EXTT8=
EXTT9=
EXTT10=
EXTT11=
EXTT12=
EXTT13=
EXTT14=
PLAYORDER=
